<svg xmlns="http://www.w3.org/2000/svg" width="64" height="64" viewBox="0 0 428 624"><path fill="#005558" d="M165.492 242.527c20.928 15.653 35.155 36.06 49.863 57.37C220.352 307.123 225.51 314.14 231 321l2.254 2.871c9.274 11.63 19.481 20.823 31.746 29.129l1.865 1.264c8.91 5.928 17.967 10.051 28.207 13.15 1.67.507 3.326 1.058 4.979 1.617 18.834 5.505 41.625 3.464 59.012-5.406C371.234 356.511 378.959 346.699 383 333c3.707-15.593 2.109-30.779-6.125-44.625-2.639-4.07-5.392-6.589-9.187-9.562-6.802-6.453-5.973-14.735-6.336-23.528-.251-5.886-1.119-11.469-2.352-17.222l-.505-2.379A712 712 0 0 0 357 229l-1.125-5.066L355 220c6.28 1.852 11.77 4.25 17.375 7.625l2.226 1.325c6.302 3.833 11.86 8.174 17.399 13.05l1.906 1.508c18.753 14.916 30.908 40.175 33.63 63.652 2.225 24.146-3.422 48.62-18.286 68.027A189 189 0 0 1 405 380l-1.312 1.44c-19.42 21.05-44.836 31.894-73.288 33.478-43.533 1.48-84.064-17.78-115.435-47.02-4.303-4.109-8.159-8.458-11.805-13.168-1.782-2.253-3.616-4.385-5.527-6.527-3.551-4.032-6.713-8.262-9.82-12.64l-1.683-2.349c-3.298-4.61-6.56-9.244-9.814-13.884-18.26-26.016-37.673-50.39-70.316-57.33-3.804-.41-7.552-.478-11.375-.437l-3.044.022C79.528 261.852 69.93 265.023 60 272l-1.926 1.332C50.172 279.412 44.44 289.152 43 299c-1.255 14.385.563 26.54 10 38 4.581 4.867 8.722 7.926 14.938 10.375 2.816 1.457 2.816 1.457 5.062 3.625 1.147 4.323 1.399 8.391 1.617 12.84.3 5.602 1.517 10.857 2.883 16.285l.65 2.617c.608 2.422 1.228 4.84 1.85 7.258q1.004 4 2 8c-18.982-2.378-36.493-10.641-51-23l-2.418-1.945C12.915 359.89 2.474 340.313 0 320c-2.11-25.738 3.97-48.128 20.055-68.617 37.283-43.839 102-40.556 145.437-8.856"/><path fill="#005558" d="M92 272c7.134.47 13.657 1.776 20.5 3.813l2.645.751C128.24 280.377 128.24 280.377 133 283c1.342 4.026.232 5.704-1.187 9.688-10.92 33.266-10.957 71.888 4.812 103.578C145.062 411.499 157.112 424.422 174 430c20.933 5.683 39.688 1.878 58.668-8.035 6.4-3.774 12.462-8.177 17.797-13.36C253 407 253 407 255.855 407.543L259 409l3.488 1.55c.615.285 1.23.569 1.865.861 6.343 2.917 12.7 5.42 19.397 7.401l1.962.59c10.469 2.967 20.686 3.89 31.538 3.723l3.45-.027q4.15-.036 8.3-.098c11.485 23.416 13.24 51.32 13.313 77l.01 2.19c.102 37.994-9.142 88.674-35.323 117.81-5.874 4.154-11.942 4.868-19 4-5.498-1.703-9.796-4.05-13.062-8.875-2.323-4.453-3.633-8.252-2.41-13.305 2.147-6.354 5.075-12.408 7.847-18.508 6.87-15.131 12.188-30.019 15.625-46.312l.505-2.358c6.244-30.685 3.934-64.125-5.888-93.685-.621-1.97-1.136-3.948-1.617-5.957l-1.914 1.617C256.939 461.726 223.192 477.723 183 475c-24.577-2.669-45.34-12.878-63-30l-1.965-1.742c-24.347-22.406-35.766-58.959-37.161-91.173C80.177 325.215 82.81 297.455 92 272M298 154c3.407 2.583 6.715 5.264 10 8l1.863 1.453c5.56 4.448 9.778 9.955 14.137 15.547l2 2.418c20.12 25.515 26.222 60.152 26.25 91.77l.002 2.116c-.046 30.182-5.067 63.104-20.252 89.696-14.91.721-29.126-2.823-43-8 1.362-3.606 2.993-7.021 4.716-10.467 17.711-35.895 21.622-80.15 8.882-118.17-3.664-10.278-8.923-18.771-15.598-27.363l-1.27-1.773c-8.29-11.075-23.811-17.568-37.093-19.79-24.447-2.94-45.838 5.133-64.95 20.063-4.886 3.882-9.422 7.93-13.687 12.5-3.634-3.335-5.304-7.276-7.375-11.687l-1.199-2.548c-2.514-5.47-4.727-10.965-6.551-16.702l-.642-1.986c-1.791-6.005-1.791-6.005-.233-9.077 3.663-3.715 7.85-6.85 12-10l1.698-1.292C205.056 130.83 259.44 126.185 298 154"/><path fill="#005558" d="M139.313 2.75c4.58 3.835 8.246 7.985 9.062 14.027.196 8.837-1.86 15.25-5.5 23.223-18.427 42.746-21.704 89.847-4.803 133.801.958 2.407 1.94 4.804 2.928 7.199l1.098 2.718c5.867 14.445 12.85 27.936 20.902 41.282l-2 1c-2.079-.943-4.114-1.983-6.125-3.062-9.791-5.033-19.427-9.23-30.309-11.141l-3.407-.601a218 218 0 0 0-6.73-1.02c-7.528-1.23-7.528-1.23-9.892-3.714-1.107-2.115-1.823-4.184-2.537-6.462q-1.088-2.74-2.184-5.477C94.734 180.86 90.645 167.338 88 153l-.492-2.527c-8.502-44.997-1.935-99.475 22.342-138.789 3.603-5.276 7.871-8.667 13.65-11.246 5.883-.736 10.52-.484 15.813 2.312M286 215c5.644 12.938 9.03 27.08 11 41l-1.674.272c-28.125 4.678-49.2 15.15-70.326 34.728-3.261-1.087-3.791-1.68-5.875-4.25-3.369-3.987-6.975-7.652-10.687-11.312-3.508-3.463-6.958-6.905-10.125-10.688-2.017-2.767-2.017-2.767-4.313-3.75 1.336-4.009 3.998-5.603 7.25-8.062l3.879-2.973 1.98-1.508a222 222 0 0 0 5.043-4.016C226.534 232.874 266.52 205.261 286 215M176.117 341.645c1.93 1.388 3.503 2.814 5.133 4.543 3.035 3.125 6.196 6.002 9.496 8.843 3.674 3.21 7.248 6.528 10.836 9.832 2.42 2.237 2.42 2.237 5.418 4.137v2c-1.538 1.142-1.538 1.142-3.7 2.39-.79.46-1.58.92-2.394 1.392l-2.594 1.468-2.642 1.505C180.28 386.427 163.676 393.742 146 396c-5.751-12.498-8.871-26.458-11-40 4.455-1.497 8.913-2.98 13.395-4.395 8.204-2.62 15.747-5.354 23.222-9.699 2.383-.906 2.383-.906 4.5-.261M231.84 297.094c3.138 1.316 4.744 3.417 6.972 5.969l1.334 1.511A695 695 0 0 1 244 309l3.563 4.063 1.656 1.902c5.418 6.19 10.887 12.292 16.781 18.035l-2 5c-5.522 0-9.176-5.348-13-9l-1.46-1.378C240.691 319.24 232.77 310.157 226 300c3.395-3.03 3.395-3.03 5.84-2.906"/><path fill="#005558" d="M231.95 296.934c2.944 1.531 4.683 3.633 6.863 6.128l2.636 2.993L244 309l2.207 2.508A880 880 0 0 1 251 317l-2 2-1.812-2.312c-1.665-2.046-3.29-3.873-5.188-5.688l-3-3-4 4-9-11c4-4 4-4 5.95-4.066M123 321h2q.074 8.249.11 16.498.015 2.806.04 5.613c.025 2.688.036 5.376.045 8.065l.032 2.538c0 5.944 0 5.944-2.227 9.286-1.44-14.255-2.779-27.85 0-42M45 231v3l-3 1v2c-1.46 1.219-1.46 1.219-3.375 2.5-2.108 1.422-3.817 2.692-5.625 4.5-1.312.927-2.648 1.82-4 2.688l-2.125 1.386L25 249l-2-1c6.882-6.577 13.959-11.93 22-17"/><path fill="#005558" d="M233 298c4.058 3.997 7.948 8.13 11.813 12.313l1.81 1.955L251 317l-2 2-1.812-2.312c-1.665-2.046-3.29-3.873-5.188-5.688l-3-3-4 4-2-4 3-1-.937-2.25c-.872-2.257-1.54-4.395-2.063-6.75M333 356l3 1-4 8c-6.11.113-11.952-.104-18-1v-1c11.522-1.148 11.522-1.148 17-1v-2h2zM385 320h2c.297 16.418.297 16.418-5 23h-2l.586-1.73c2.25-7.005 3.444-13.986 4.414-21.27M340 521h1c-.49 9.88-2.027 19.334-4 29h-1c-.631-9.936 1.522-19.424 4-29M263 331l3 2-2 5c-3 0-3 0-5.687-2.5L256 333c3.313-1.125 3.313-1.125 7-2M358 221l8 3-2 1-1 3h-2l-1 3c-1.408-2.628-2.508-5.046-3-8zM316 372h18v2c-5.724.937-11.302 1.434-17 0zM295 344h1c-.503 3.733-1.087 7.35-2 11v3l-5-1c1.687-4.498 3.817-8.729 6-13M289 563h2c-.523 2.763-1.109 5.326-2 8h-2l.125 2.313C287 576 287 576 285 579l-2-1zM327 572h3c-1.59 5.361-3.19 10.708-5 16-1.38-3.767-.596-6.448.438-10.25l.87-3.266zM230 297l3 1h-2v7h2l-1 3-6-8zM91 274l2 1c-.907 4.687-1.955 9.342-3 14l-2-1q.467-2.376.938-4.75l.527-2.672c.459-2.21.968-4.393 1.535-6.578M156 215c2.406 2.185 3.795 4.26 5.188 7.188l1.042 2.167L163 226c-3.22-.932-4.657-1.38-6.312-4.375C156 219 156 219 156 215M78 393h3l1 5-11-2v-1h7zM201 253l2 3a466 466 0 0 1-3.375 2.5l-1.898 1.406C196 261 196 261 194 261c1.38-4.142 3.598-5.322 7-8M140 372h1l1 9h2l-1 5c-1.979-2.968-2.522-4.695-3.187-8.125l-.543-2.695L139 373zM284 407c4.03.553 8.02 1.156 12 2v2c-8.571-.857-8.571-.857-12-3zM293 239h1q.546 2.371 1.063 4.75l.597 2.672c.338 2.565.152 4.149-.66 6.578-2.28-3.42-2.22-4.682-2.125-8.687l.055-3.012zM287 220c2.421 2.421 2.528 3.801 3.125 7.125l.508 2.758L291 232h-2l-3-11zM123 447c4.486 1.62 7.636 3.636 11 7l-3 1c-2.043-1.398-2.043-1.398-4.187-3.375l-2.168-1.96C123 448 123 448 123 447M302 359c1.863.253 3.717.577 5.563.938l3.066.59L313 361v2a340 340 0 0 1-4.312-.375c-.801-.07-1.602-.14-2.426-.21C304 362 304 362 301 360zM279 587l2 1-5 11h-2c1.31-4.234 2.944-8.074 5-12"/><path fill="#005558" d="m384 334 2 3a125 125 0 0 1-4 6h-2c1.75-6.75 1.75-6.75 4-9M220 284l1 2h2v2l4 1-4 2-5-6zM108 15l2 4-1.937 2.375c-2.044 2.42-2.044 2.42-3.063 4.625l-2-1zM136 355h4c-.312 1.938-.312 1.938-1 4l-3 1c-.562-1.937-.562-1.937-1-4zM312 167c3.35 1.117 3.793 1.747 5.688 4.563l1.324 1.94L320 175c-3.362-1.44-5.592-3.248-8-6zM285 435l2 1-6 5v-4c1.875-1.062 1.875-1.062 4-2M332 432c1.884 3.265 2.493 6.281 3 10l-2 1c-1.283-3.85-1.066-6.947-1-11M27 244c2.25.25 2.25.25 4 1l-6 4-2-1c1.75-2.062 1.75-2.062 4-4M352 367v3l-4 2-3-3zM339 342h2l-3 10c-1.312-3.937-.243-6.125 1-10"/></svg>